<svg viewBox="0 0 33 33" xmlns="http://www.w3.org/2000/svg" fill-rule="evenodd" clip-rule="evenodd" stroke-linejoin="round" stroke-miterlimit="1.414"><g fill-rule="nonzero"><path d="M16.25 0C7.275 0 0 7.275 0 16.25S7.275 32.5 16.25 32.5c.231 0 .459-.006.687-.015V20.623h-2.451v-4.088h2.451v-2.454c0-3.335 1.382-5.32 5.31-5.32h3.271v4.091h-2.044c-1.53 0-1.632.57-1.632 1.637l-.005 2.046h3.704l-.433 4.088h-3.271v10.892C28.06 29.237 32.5 23.262 32.5 16.25 32.5 7.275 25.225 0 16.25 0z" fill="#3b5998"/><path d="M22.247 8.763c-3.928 0-5.309 1.985-5.309 5.32v2.453h-2.452v4.088h2.452v11.862a16.182 16.182 0 0 0 4.9-.97V20.624h3.271l.432-4.088h-3.703l.005-2.046c0-1.066.102-1.637 1.631-1.637h2.044v-4.09h-3.271z" fill="#fff"/></g></svg>