<svg xmlns="http://www.w3.org/2000/svg" viewBox="0 0 31.999999 31.210157" height="33.291" width="34.133"><path d="M16 0C7.162 0 0 7.163 0 16c0 7.07 4.584 13.066 10.942 15.183.8.146 1.092-.348 1.092-.772 0-.378-.013-1.385-.02-2.72-4.452.966-5.39-2.145-5.39-2.145-.73-1.848-1.778-2.34-1.778-2.34-1.452-.993.11-.973.11-.973 1.606.114 2.45 1.65 2.45 1.65 1.428 2.444 3.746 1.737 4.658 1.33.145-1.035.558-1.74 1.015-2.14-3.553-.404-7.29-1.777-7.29-7.908 0-1.747.625-3.175 1.648-4.294-.165-.404-.714-2.03.157-4.234 0 0 1.343-.43 4.4 1.64A15.324 15.324 0 0 1 16 7.738c1.36.006 2.728.184 4.006.538 3.055-2.07 4.395-1.64 4.395-1.64.875 2.203.326 3.83.16 4.234 1.026 1.12 1.646 2.547 1.646 4.294 0 6.146-3.74 7.5-7.306 7.895.575.493 1.086 1.47 1.086 2.962 0 2.138-.02 3.864-.02 4.39 0 .427.29.925 1.1.77C27.42 29.06 32 23.067 32 16c0-8.837-7.164-16-16-16" fill="#1b1817" fill-rule="evenodd"/></svg>