<svg xmlns="http://www.w3.org/2000/svg" width="32" viewBox="0 0 32 32" height="32"><path d="M24.98 23.54v-6.247c0-3.346-1.787-4.904-4.17-4.904-1.92 0-2.782 1.057-3.262 1.8v-1.545h-3.622c.048 1.023 0 10.895 0 10.895h3.622v-6.085c0-.324.023-.65.12-.882.26-.65.856-1.324 1.856-1.324 1.31 0 1.835.997 1.835 2.46v5.83h3.62zM10.11 11.158c1.264 0 2.05-.837 2.05-1.883-.023-1.068-.786-1.88-2.025-1.88-1.238 0-2.048.81-2.048 1.88 0 1.046.786 1.883 2.002 1.883h.02zM16 32C7.164 32 0 24.836 0 16 0 7.163 7.164 0 16 0s16 7.163 16 16c0 8.836-7.164 16-16 16zm-4.078-8.46V12.645h-3.62V23.54h3.62z" clip-rule="evenodd" fill="#007ab9" fill-rule="evenodd"/></svg>