<svg xmlns="http://www.w3.org/2000/svg" height="32" width="32" viewBox="0 0 32 32"><defs><linearGradient gradientTransform="scale(.13333)" gradientUnits="userSpaceOnUse" y2="180" x2="100.008" y1="40.008" x1="160.008" id="a"><stop offset="0" stop-color="#37aee2"/><stop offset="1" stop-color="#1e96c8"/></linearGradient><linearGradient gradientUnits="userSpaceOnUse" gradientTransform="scale(.1456 .1221)" y2="174.708" x2="146.527" y1="131.028" x1="123.641" id="b"><stop offset="0" stop-color="#eff7fc"/><stop offset="1" stop-color="#fff"/></linearGradient></defs><circle r="16" cy="16" cx="16" fill="url(#a)"/><path d="M13.067 23.333c-.52 0-.43-.195-.61-.69l-1.524-5.016 11.734-6.96" fill="#c8daea"/><path d="M13.067 23.333c.4 0 .576-.183.8-.4L16 20.86l-2.66-1.606" fill="#a9c9dd"/><path d="M13.34 19.255l6.447 4.764c.735.405 1.267.194 1.45-.685l2.624-12.368c.27-1.077-.41-1.566-1.113-1.246L7.335 15.664c-1.052.422-1.046 1.01-.192 1.27l3.955 1.235 9.157-5.776c.432-.263.83-.122.503.167" fill="url(#b)"/></svg>