<svg viewBox="0 0 33 33" xmlns="http://www.w3.org/2000/svg" fill-rule="evenodd" clip-rule="evenodd" stroke-linejoin="round" stroke-miterlimit="1.414"><path d="M32.35 16.234c0 8.927-7.346 16.274-16.273 16.275h-.002C7.147 32.509-.2 25.162-.2 16.234-.2 7.306 7.147-.041 16.075-.041h.002C25.004-.04 32.35 7.306 32.35 16.234z" fill="#4c75a3" fill-rule="nonzero"/><path d="M15.968 22.48h1.326s.4-.044.605-.264c.188-.202.182-.582.182-.582s-.026-1.779.8-2.041c.814-.259 1.859 1.719 2.967 2.479.838.576 1.474.45 1.474.45l2.963-.042s1.549-.095.814-1.314c-.06-.099-.428-.901-2.202-2.548-1.858-1.724-1.609-1.445.629-4.427 1.362-1.816 1.907-2.925 1.737-3.4-.162-.452-1.165-.333-1.165-.333l-3.335.021s-.248-.034-.431.076c-.179.107-.294.358-.294.358s-.528 1.405-1.232 2.6c-1.485 2.522-2.079 2.656-2.322 2.499-.565-.365-.423-1.466-.423-2.249 0-2.444.37-3.463-.722-3.727-.363-.087-.63-.145-1.557-.154-1.19-.012-2.197.003-2.768.283-.379.186-.672.6-.494.623.221.03.72.135.985.495.342.465.33 1.509.33 1.509s.196 2.877-.459 3.235c-.45.245-1.066-.256-2.39-2.543-.679-1.172-1.191-2.468-1.191-2.468s-.099-.242-.275-.372a1.37 1.37 0 0 0-.512-.206l-3.17.02s-.475.014-.65.22c-.156.185-.013.565-.013.565s2.482 5.805 5.291 8.731c2.577 2.682 5.502 2.506 5.502 2.506" fill="#fff"/></svg>